# xmcd CD database file
#
# Track frame offsets:
#	150
#	27993
#	50836
#	79599
#	109958
#	125794
#	134508
#	162205
#
# Disc length: 2411 seconds
#
# Revision: 0
# Processed by: cddbd v1.5.1PL2 Copyright (c) Steve Scherf et al.
# Submitted via: CDex 1.51
#
DISCID=70096908
DTITLE=University of North Florida Jazz Ensemble 1 - And the Melody Still Lingers On
DYEAR=2005
DGENRE=Jazz
TTITLE0=And the Melody Still Lingers On
TTITLE1=The Second Time Around
TTITLE2=Sincerity
TTITLE3=Zack
TTITLE4=Daydreams
TTITLE5=Bill Bailey
TTITLE6=Totem Pole
TTITLE7=To You
EXTD=YEAR: 2005
EXTT0=
EXTT1=
EXTT2=
EXTT3=
EXTT4=
EXTT5=
EXTT6=
EXTT7=
PLAYORDER=
